HIERARCHY
ROOT Pelvis
{
	OFFSET 0.000000 0.000000 0.000000
	CHANNELS 6 Xposition Yposition Zposition Zrotation Yrotation Xrotation 
	JOINT Left_hip
	{
		OFFSET 0.070241 -0.085575 -0.010474
		CHANNELS 3 Zrotation Yrotation Xrotation
		JOINT Left_knee
		{
			OFFSET 0.032125 -0.356873 -0.000555
			CHANNELS 3 Zrotation Yrotation Xrotation
			JOINT Left_ankle
			{
				OFFSET -0.010961 -0.370212 -0.042278
				CHANNELS 3 Zrotation Yrotation Xrotation
				JOINT Left_foot
				{
					OFFSET 0.023322 -0.052281 0.110104
					CHANNELS 3 Zrotation Yrotation Xrotation
					End Site
					{
						OFFSET 0.000000 0.000000 0.000000
					}
				}
			}
		}
	}
	JOINT Right_hip
	{
		OFFSET -0.068518 -0.084320 -0.007402
		CHANNELS 3 Zrotation Yrotation Xrotation
		JOINT Right_knee
		{
			OFFSET -0.037345 -0.364815 -0.003619
			CHANNELS 3 Zrotation Yrotation Xrotation
			JOINT Right_ankle
			{
				OFFSET 0.013394 -0.370006 -0.039954
				CHANNELS 3 Zrotation Yrotation Xrotation
				JOINT Right_foot
				{
					OFFSET -0.019600 -0.045455 0.113223
					CHANNELS 3 Zrotation Yrotation Xrotation
					End Site
					{
						OFFSET 0.000000 0.000000 0.000000
					}
				}
			}
		}
	}
	JOINT Spine1
	{
		OFFSET -0.002404 0.098129 -0.018169
		CHANNELS 3 Zrotation Yrotation Xrotation
		JOINT Spine2
		{
			OFFSET 0.003989 0.127209 -0.001742
			CHANNELS 3 Zrotation Yrotation Xrotation
			JOINT Spine3
			{
				OFFSET 0.001758 0.046641 0.023475
				CHANNELS 3 Zrotation Yrotation Xrotation
				JOINT Neck
				{
					OFFSET -0.003759 0.194901 -0.039982
					CHANNELS 3 Zrotation Yrotation Xrotation
					JOINT Head
					{
						OFFSET 0.003999 0.063756 0.047665
						CHANNELS 3 Zrotation Yrotation Xrotation
						End Site
						{
							OFFSET 0.000000 0.000000 0.000000
						}
					}
				}
				JOINT Left_collar
				{
					OFFSET 0.071816 0.109048 -0.028973
					CHANNELS 3 Zrotation Yrotation Xrotation
					JOINT Left_shoulder
					{
						OFFSET 0.084027 0.032269 -0.006525
						CHANNELS 3 Zrotation Yrotation Xrotation
						JOINT Left_elbow
						{
							OFFSET 0.243854 -0.013992 -0.025905
							CHANNELS 3 Zrotation Yrotation Xrotation
							JOINT Left_wrist
							{
								OFFSET 0.232156 0.008196 -0.000339
								CHANNELS 3 Zrotation Yrotation Xrotation
								JOINT Left_palm
								{
									OFFSET 0.075377 -0.009461 -0.012494
									CHANNELS 3 Zrotation Yrotation Xrotation
									End Site
									{
										OFFSET 0.000000 0.000000 0.000000
									}
								}
							}
						}
					}
				}
				JOINT Right_collar
				{
					OFFSET -0.073768 0.107001 -0.033755
					CHANNELS 3 Zrotation Yrotation Xrotation
					JOINT Right_shoulder
					{
						OFFSET -0.086837 0.032868 -0.009431
						CHANNELS 3 Zrotation Yrotation Xrotation
						JOINT Right_elbow
						{
							OFFSET -0.236446 -0.012544 -0.018747
							CHANNELS 3 Zrotation Yrotation Xrotation
							JOINT Right_wrist
							{
								OFFSET -0.236110 0.006124 -0.004327
								CHANNELS 3 Zrotation Yrotation Xrotation
								JOINT Right_palm
								{
									OFFSET -0.074800 -0.006875 -0.009610
									CHANNELS 3 Zrotation Yrotation Xrotation
									End Site
									{
										OFFSET 0.000000 0.000000 0.000000
									}
								}
							}
						}
					}
				}
			}
		}
	}
}
MOTION
Frames: 13
Frame Time: 0.100000
-0.573473 -0.167487 0.747510 170.686784 40.306650 -13.279862 4.902225 9.217035 5.448012 1.743449 -10.637377 -7.587854 -16.777077 18.630617 -1.733380 22.267471 -6.325695 -1.960390 -0.087249 -6.609078 2.242955 -1.349367 3.765015 -4.485205 21.071215 -17.008512 -2.521934 -24.667971 6.850210 -8.041252 -4.166173 3.539178 5.398975 13.029800 -10.365306 -9.170396 9.234692 -1.062510 2.658512 -10.961858 25.776161 -18.033783 5.941548 -9.421239 -12.193415 38.604001 -16.356491 -18.487814 17.800471 -12.611308 -17.387428 6.636460 -33.739631 17.591200 34.442907 -32.736108 53.027627 -16.923256 -4.594677 -26.169842 3.808804 11.446123 -6.854741 63.503171 -0.443559 11.958013 -11.455933 20.033270 12.892620 -17.620696 3.094054 6.500258 12.634248 8.546966 -17.704530 
-0.573396 -0.170591 0.753755 171.706563 39.323576 -9.740338 2.822718 7.449973 3.267068 4.148572 -9.181360 -9.483587 -17.296040 22.450743 3.281422 24.125846 -4.021371 -2.332920 0.242518 -5.519070 -0.013288 -1.958817 4.796473 -6.280760 26.716444 -25.168401 -3.897875 -41.021517 15.706157 -15.086098 -3.309253 3.842377 4.019818 14.672037 -11.107115 -10.892174 9.709594 -2.138928 4.751238 -13.948711 27.427459 -22.414011 5.676613 -9.237932 -14.732748 43.393682 -16.983079 -22.274635 22.288959 -10.670670 -28.076848 -2.993763 -1.418225 10.127155 24.461954 -17.946661 48.862970 -12.334201 -5.752052 -21.744935 1.061117 9.830316 -12.116371 63.283990 -1.192997 13.588284 -9.399939 18.301487 12.409341 -13.983537 4.420946 10.875296 13.481341 9.120221 -16.931311 
-0.570626 -0.173766 0.759462 173.125093 39.584249 -7.776137 2.568644 7.310788 2.465082 3.657724 -8.878258 -9.933215 -16.950608 21.451114 5.870068 21.964406 -1.598026 -1.757880 0.010442 -5.818905 -0.966024 -2.469898 5.451898 -6.390697 27.164745 -27.394400 -4.220739 -44.664247 18.760348 -19.288464 -2.547063 3.395062 4.475953 13.819428 -11.196572 -11.107994 9.852612 -2.189828 4.831248 -15.281513 26.142540 -23.154926 7.073085 -7.662475 -16.768021 44.899288 -16.595588 -25.667547 27.129910 -8.091517 -41.502839 -3.359901 10.940159 -18.331678 24.880937 -7.911499 40.547776 -8.467275 -5.665091 -13.737374 -0.085643 10.216730 -12.551185 63.266060 -1.690765 13.351715 -8.780273 16.209071 11.352745 -11.420939 1.040446 15.057742 11.726751 9.381889 -13.682475 
-0.566910 -0.175918 0.767442 172.399697 41.424553 -8.434082 3.021850 6.348012 2.537110 4.127831 -9.348482 -9.992031 -17.639312 22.799912 6.250505 23.346284 -4.060646 -2.920087 0.310058 -6.373061 -0.437514 -2.004502 4.302023 -6.147372 26.867660 -26.280511 -3.797751 -42.783500 16.818766 -17.158016 -3.178085 4.244614 3.873684 13.935823 -10.226740 -11.270914 9.790407 -1.402081 5.424594 -15.128457 25.486418 -21.582141 7.463425 -10.171952 -16.055529 45.476293 -13.885966 -23.458325 25.917916 -9.104154 -34.536272 -3.919615 1.423121 -4.839934 18.590030 -9.450998 36.933811 -8.514121 -4.696047 -14.256775 -0.388628 8.192206 -11.622779 62.384643 -2.826190 12.658019 -8.847234 13.943016 12.608616 -9.399364 1.265212 13.396110 11.662257 8.979332 -14.613748 
-0.560702 -0.178155 0.772736 171.009649 45.470157 -10.334361 3.694254 4.701835 2.241160 3.978689 -8.075020 -9.839275 -17.697633 21.309372 7.952952 21.626691 -1.267859 -2.936905 0.885148 -6.924144 0.123471 -1.649232 1.402418 -5.121568 26.242520 -26.593824 -3.972604 -44.164786 18.262943 -18.966868 -3.703175 4.100046 3.843774 13.686357 -10.827588 -10.051680 9.583544 -1.663212 4.128440 -15.242811 25.513929 -19.321898 8.410877 -12.901663 -17.643543 47.888428 -13.501521 -24.027305 30.100235 -9.079801 -43.872405 -6.457139 3.632510 -22.016222 -12.662320 2.691360 13.698782 0.683244 -3.115588 -2.893949 -1.197663 6.510615 -10.970140 63.578291 -2.557256 12.553275 -11.833871 14.095831 10.581829 4.314163 -4.763035 9.431729 9.653536 8.731854 -9.706382 
-0.554761 -0.178327 0.776304 170.186055 47.830931 -11.491511 4.140652 4.715283 1.680039 3.325141 -6.576563 -8.950210 -16.493988 19.526737 8.617191 18.401704 -0.788302 -4.012641 1.078238 -7.659589 1.203040 -1.177967 -1.193120 -5.422137 23.580509 -23.760761 -3.402126 -37.965804 17.497607 -14.435613 -3.921365 3.853115 4.281482 12.346469 -9.972449 -9.958003 8.533482 -1.304055 2.710029 -13.517615 22.872220 -17.392505 8.288869 -13.438911 -14.151981 41.113408 -13.487422 -22.100176 28.572764 -14.342702 -39.855370 4.233617 -17.417699 -16.795188 -6.670484 -2.883005 12.191923 0.009767 -2.921848 -0.551854 3.526230 6.449584 -9.143173 61.402836 -3.346337 11.732783 -12.564192 15.350418 5.921182 -2.013264 -2.022734 8.284726 10.223514 8.673979 -8.480279 
-0.547706 -0.173291 0.775745 170.454074 47.610507 -12.998719 4.309174 5.091448 2.860513 2.691107 -5.344250 -7.558262 -13.127373 17.925692 6.590052 13.616114 -0.284280 -4.401553 0.832140 -7.815722 2.946300 -0.527304 -2.785826 -4.965248 17.799092 -18.086543 -3.681057 -24.600871 12.427203 -6.705294 -2.930962 3.502826 5.600614 9.581416 -6.949499 -8.848701 7.160075 -0.271760 1.509676 -10.804499 17.368543 -15.680303 6.027513 -11.459465 -8.595984 28.293833 -12.020016 -17.932066 16.321097 -23.541028 -28.537366 33.675419 -46.693612 -17.008442 21.384798 -13.418218 20.495811 -3.797965 -1.449358 -1.890727 9.909563 7.991293 -6.354238 59.875446 -2.037628 10.955153 -12.070070 14.059189 4.844495 -11.277673 2.563335 6.944264 7.670555 6.161901 -6.318981 
-0.544254 -0.168442 0.772954 171.670408 47.084015 -13.132575 4.686815 4.446795 3.743138 0.458793 -3.284864 -6.891391 -6.047787 12.122916 4.698402 5.629967 4.695217 -5.171086 -0.447288 -7.622252 3.789653 0.673820 -3.678025 -4.750220 7.347618 -11.542481 -1.632924 -4.635341 4.580308 0.521140 -1.093950 2.037100 4.570912 5.264989 -3.751890 -6.134687 4.302877 0.487863 -0.618125 -4.566864 12.923559 -12.964654 3.846195 -8.536977 -3.307377 11.573273 -9.775230 -12.476720 -2.657468 -35.392889 -14.682583 70.808922 -68.795501 -43.376959 12.125333 -12.592108 8.986556 -2.109676 0.715924 3.033249 16.311305 8.132183 0.279037 60.445547 2.447857 14.394162 -13.128730 16.365895 7.060294 -1.656732 0.755130 0.401840 4.253398 4.751907 -2.866994 
-0.541498 -0.164827 0.768223 171.832208 47.122735 -13.538845 4.747341 3.971156 3.954128 0.085113 -1.528282 -6.904615 -5.210839 9.548431 4.964720 4.864897 7.155832 -6.980226 -0.722984 -6.708861 3.525535 1.002360 -5.924619 -3.599533 4.265960 -8.979257 -2.027156 -0.262692 -0.103002 2.487588 0.199417 1.036022 4.495914 2.508144 -1.957381 -4.101313 2.629769 0.246027 -1.950993 -0.670951 9.075148 -13.083626 2.201900 -5.939438 -2.422682 -3.406940 -6.030172 -6.112740 -25.422542 -31.034209 4.126465 76.772853 -81.628121 -42.676416 0.976013 -15.741827 8.745430 -1.518232 1.237952 -0.203048 19.915401 6.911257 2.406201 59.217870 4.912982 16.370748 -10.774584 22.623297 8.107362 3.893403 2.855565 -1.058339 2.657237 3.848921 -1.882569 
-0.544524 -0.162745 0.765933 172.405194 45.131729 -13.066502 4.850470 4.132560 4.637689 -0.176964 -1.343469 -7.654215 -5.737103 10.744071 4.023471 6.903225 4.401487 -5.363936 -0.765656 -6.130855 3.651869 1.051326 -5.130367 -4.097329 3.834188 -9.204914 -2.599512 -0.331404 -0.712862 3.990279 0.155495 1.361254 3.762957 1.499968 -1.043756 -3.744716 1.525226 0.587390 -1.961782 0.956079 7.419747 -13.028172 1.393781 -4.810876 -2.379226 -12.848392 -1.025303 -1.018655 -35.560221 -16.104808 14.776055 -12.563434 -73.525406 40.474767 2.945634 -13.747436 -5.191482 -6.705518 -0.518572 -5.903153 23.202014 5.157866 3.520606 56.428288 6.439304 17.872485 -7.707318 28.471990 2.306417 -2.070181 3.169273 -12.867808 7.411646 4.997795 -5.129276 
-0.547551 -0.161100 0.763862 172.473943 43.477216 -14.538247 4.967419 4.862121 6.019919 0.000880 -1.812996 -6.431861 -6.437449 10.837134 2.645644 8.443675 5.436569 -4.403659 -0.891481 -5.536214 5.167205 0.933183 -4.489563 -3.740114 4.044922 -9.074555 -2.793948 -0.572510 -1.188856 3.680254 -0.081540 3.135577 3.991654 0.182721 0.491413 -1.307330 0.700052 2.107401 -2.775256 2.455937 5.892406 -12.596305 1.074150 -6.640627 -3.970960 -15.684911 -3.154893 0.641069 -36.504389 -11.446080 16.656790 -13.215980 -57.317712 35.603026 3.319150 -13.375577 -3.399142 -9.007864 -0.652027 -12.977398 22.262666 10.133142 4.721646 55.289783 11.441318 16.989571 -7.948429 31.126127 -10.049607 -7.535377 2.349851 -31.857309 10.316209 4.325813 -7.452729 
-0.540750 -0.158847 0.752042 171.196660 46.586672 -17.605002 4.810260 3.754517 5.779456 -0.285727 -2.388957 -4.828803 -2.998288 8.234805 2.875375 1.277253 6.131130 -0.791734 -1.478646 -7.378141 5.739193 1.340946 -5.100893 -1.507181 0.577544 -11.332532 -4.249436 3.139323 5.968558 7.934310 0.365856 4.113889 5.398381 -0.962456 0.101129 -0.889747 -0.026818 2.395235 -3.284846 2.169706 2.408681 -7.935720 -0.031311 -7.965649 7.467300 -17.949351 -18.202272 -1.758351 -34.296378 -30.370826 6.487530 9.413374 -32.467931 -14.656153 17.872504 -0.438845 -30.770870 -8.098156 -1.502182 1.095640 23.126491 24.702817 3.616184 42.554933 32.793617 8.712660 -13.847597 18.142055 -31.516807 -20.397490 -1.871808 -38.296992 11.530512 4.721671 -1.164345 
-0.537319 -0.159872 0.740625 169.909794 49.088002 -18.034197 4.230383 1.405051 5.056061 -0.220209 -0.480441 -6.111609 -4.656236 6.966497 4.500042 3.729571 9.508580 -0.939213 -1.717664 -6.557106 4.157904 1.722484 -7.822743 -0.004648 -0.504080 -11.290661 -3.719169 4.039384 4.843752 9.026225 0.530523 3.233643 4.866530 -1.383935 -0.102085 2.580297 0.071777 2.313218 -3.362403 1.172161 0.280344 -4.941629 -0.115654 -7.791089 5.763652 -7.334680 -20.824448 -6.941538 -25.814301 -41.782673 -2.213675 29.216008 -42.643547 -46.586560 -13.165435 -17.216528 -61.674924 2.799170 3.336062 15.358754 8.898974 27.069696 -3.807642 32.881491 42.016485 2.400352 -34.116673 35.701826 -56.281329 10.223750 15.565113 -66.408284 -0.639777 0.201696 10.331937 
